# xmcd CD database file
# Copyright (C) 1993-1998 Ti Kan
#
# Track frame offsets:
#	150
#	12240
#	22752
#	33865
#	45112
#	60177
#	72042
#	86910
#	99785
#	113677
#	127600
#	142272
#	157112
#	169834
#	182280
#	194145
#	207942
#	221242
#	236392
#	250609
#	264900
#	276865
#	289980
#	303527
#	316615
#	330230
#
# Disc length: 4554 seconds
#
# Revision: 3
# Processed by: cddbd v1.4b41PL1 Copyright (c) Steve Scherf et al.
# Submitted via: NotifyCDPlayer(CDDB) 1.51.3
#
DISCID=5611c81a
DTITLE=Various Artist - The Aristocrat Of The Blues - Disc 2
DYEAR=1900
DGENRE=
TTITLE0=Muddy Waters - You're Gonna Miss Me
TTITLE1=Muddy Waters - Mean Red Spider
TTITLE2=Muddy Waters - Standin' Here Tremblin'
TTITLE3=Muddy Waters - Muddy Jumps One
TTITLE4=Muddy Waters - Streamline Woman
TTITLE5=Muddy Waters - Hard Days
TTITLE6=Forest City Joe - Memory Of Sonny Boy
TTITLE7=Duke Jenkins' Aristocrats - Baby, I'm Sick Of You
TTITLE8=Robert Nighthawk - Sweet Black Angel
TTITLE9=Robert Nighthawk - She Knows How To Love A Man
TTITLE10=Robert Nighthawk - Anna Lee
TTITLE11=Robert Nighthawk - Return Mail Blues
TTITLE12=Muddy Waters - Little Geneva
TTITLE13=Muddy Waters - Canary Bird
TTITLE14=Muddy Waters - Burying Ground
TTITLE15=Muddy Waters - You Gonna Need My Help
TTITLE16=Little Johnny Jones - Big Town Playboy
TTITLE17=Little Johnny Jones - Shelby County Blues
TTITLE18=Muddy Waters - Screamin' And Cryin'
TTITLE19=Muddy Waters - Where's My Woman Been
TTITLE20=Muddy Waters - Last Time I Fool Around With You
TTITLE21=Robert Nighthawk - Six Three O
TTITLE22=Robert Nighthawk - Prison Bound
TTITLE23=Robert Nighthawk - Jackson Town Gal
TTITLE24=Muddy Waters - Rollin' And Tumblin' Part 1
TTITLE25=Muddy Waters - Rollin' And Tumblin' Part 2
EXTD=
EXTT0=1.  November 30, 1948\n2.  November 30, 1948\n3.  November 30, 1948\n4
EXTT0=November 30, 1948\n5.  November 30, 1948\n6.  November 30, 1948\n7.
EXTT0=December 2, 1948\n8.  1949\n9.  July 12, 1949\n10. July 12, 1949\n11
EXTT0=July 12, 1949\n12. July 12, 1949\n13. c.July, 1949\n14. c.July, 1949
EXTT0=\n15. c.July, 1949\n16. c.July, 1949\n17. Summer, 1949\n18. Summer, 19
EXTT0=49\n19. Summer, 1949\n20. Summer, 1949\n21. Summer, 1949\n22. January 
EXTT0=5, 1950\n23. January 5, 1950\n24. January 5, 1950\n25. February, 1950\
EXTT0=n26. February, 1950
EXTT1=
EXTT2=
EXTT3=
EXTT4=
EXTT5=
EXTT6=
EXTT7=
EXTT8=
EXTT9=
EXTT10=
EXTT11=
EXTT12=
EXTT13=
EXTT14=
EXTT15=
EXTT16=
EXTT17=
EXTT18=
EXTT19=
EXTT20=
EXTT21=
EXTT22=
EXTT23=
EXTT24=
EXTT25=
PLAYORDER=
